<?xml version="1.0" encoding="UTF-8" standalone="no"?>
<!-- Created with Inkscape (http://www.inkscape.org/) -->

<svg
   width="128"
   height="128"
   viewBox="0 0 33.866667 33.866667"
   version="1.1"
   id="svg5"
   inkscape:version="1.1 (c68e22c387, 2021-05-23)"
   sodipodi:docname="PackageIcon.svg"
   inkscape:export-filename="C:\Users\who\Desktop\p.png"
   inkscape:export-xdpi="96"
   inkscape:export-ydpi="96"
   xmlns:inkscape="http://www.inkscape.org/namespaces/inkscape"
   xmlns:sodipodi="http://sodipodi.sourceforge.net/DTD/sodipodi-0.dtd"
   xmlns="http://www.w3.org/2000/svg"
   xmlns:svg="http://www.w3.org/2000/svg">
  <sodipodi:namedview
     id="namedview7"
     pagecolor="#505050"
     bordercolor="#eeeeee"
     borderopacity="1"
     inkscape:pageshadow="0"
     inkscape:pageopacity="0"
     inkscape:pagecheckerboard="0"
     inkscape:document-units="px"
     showgrid="false"
     inkscape:zoom="4"
     inkscape:cx="99.5"
     inkscape:cy="76.875"
     inkscape:window-width="2400"
     inkscape:window-height="1261"
     inkscape:window-x="2391"
     inkscape:window-y="95"
     inkscape:window-maximized="1"
     inkscape:current-layer="g18235" />
  <defs
     id="defs2" />
  <g
     inkscape:label="レイヤー 1"
     inkscape:groupmode="layer"
     id="layer1"
     style="display:inline">
    <g
       id="g18235"
       transform="translate(-0.19980599,0.07870091)">
      <g
         id="g1242"
         transform="matrix(0.81731321,0,0,0.81731321,8.6807411,-1.1961243)">
        <path
           style="fill:#bf6952;fill-opacity:1;stroke-width:0.264583"
           d="m -9.342878,33.820068 c -0.387358,-3.295806 1.580558,-6.80139 4.86026,-8.657916 0.270884,-0.153338 0.2576497,-0.385477 -0.06615,-1.160437 -1.2767713,-3.055736 0.445996,-6.728394 3.809711,-8.12169 0.774155,-0.320666 0.785567,-0.350949 0.407651,-1.081757 -0.551671,-1.066816 -0.487548,-2.861891 0.138937,-3.889408 0.714561,-1.1719736 1.884341,-1.8277106 4.166057,-2.3353436 1.584675,-0.352557 1.920789,-0.517933 1.920789,-0.945072 0,-1.309295 0.661232,-2.944261 1.640844,-4.057159 0.577479,-0.656051 1.197683,-1.19282 1.37823,-1.19282 0.180548,0 0.616913,0.309244 0.969702,0.687207 0.835189,0.894791 2.135336,1.547733 4.686798,2.353739 2.636258,0.832794 3.362968,1.544116 3.362968,3.29176 0,1.257379 0.0053,1.264884 1.190625,1.6889866 2.644081,0.94603 4.301751,3.264936 4.339875,6.071035 0.0208,1.531573 0.04902,1.588828 1.508315,3.060584 1.856896,1.872762 2.618476,3.734841 2.618476,6.402242 0,1.685766 0.07552,1.938808 0.901676,3.021129 1.191318,1.560711 1.598578,2.824146 1.582277,4.908735 -0.02399,3.068624 -1.534757,5.598869 -3.542335,6.743714 -1.044597,0.595694 -3.717683,1.220722 -6.400462,1.179918 -3.732957,-0.05678 -7.189643,-0.752699 -8.920351,-1.471426 -0.81699,-0.339278 -1.150287,-0.31246 -3.571875,0.287406 -2.603058,0.644819 -6.4945031,1.198299 -8.359346,1.188887 -0.5093231,-0.0026 -1.8838134,-0.214626 -3.8734725,-1.009358 -1.9896591,-0.794732 -4.3342805,-3.432642 -4.7491995,-6.962956 z"
           id="path1254"
           sodipodi:nodetypes="ssssssssssssssssssssssssss" />
        <path
           style="fill:#f5f8fa;fill-opacity:1;stroke-width:0.264583"
           d="m 18.476125,23.407814 c 2.584707,-1.840474 2.519286,-7.116352 -0.108111,-8.718358 -3.150983,-1.921255 -6.621453,1.883612 -5.469815,5.996859 0.201587,0.72 0.739277,1.656088 1.316641,2.25005 0.476779,0.490486 1.359046,1.01273 2.229953,1.022898 0.849661,0.0099 1.507775,-0.178644 2.031332,-0.551449 z"
           id="path4607"
           sodipodi:nodetypes="ssssss" />
        <path
           style="fill:#f5f8fa;fill-opacity:1;stroke-width:0.264583"
           d="M 8.1260325,22.871206 C 9.9699297,21.199863 9.873997,16.47015 7.345046,14.765891 4.683669,12.972389 1.776083,15.282713 1.776083,19.190907 c 0,2.92187 1.4997925,4.71234 3.933732,4.757762 0.7909134,0.01476 1.5156306,-0.261154 2.4162175,-1.077463 z"
           id="path4603"
           sodipodi:nodetypes="sssss" />
        <path
           style="fill:#f2abba;fill-opacity:1;stroke-width:0.264583"
           d="m 13.408429,34.723751 c 0.974193,-0.140903 2.450122,-0.556413 3.279842,-0.923356 1.453653,-0.642874 1.492036,-0.68545 1.054146,-1.169313 -0.249942,-0.27618 -1.071026,-0.772517 -1.824634,-1.102968 -1.658047,-0.727043 -5.414644,-0.985076 -7.633916,-0.524357 -1.547541,0.321268 -3.72351,1.536732 -3.574224,1.996509 0.154313,0.475255 2.581008,1.481302 4.117799,1.707137 2.078532,0.305443 2.57007,0.307197 4.580987,0.01635 z"
           id="path4601" />
        <g
           id="g14353"
           transform="translate(-41.581062,23.598277)">
          <path
             style="fill:#000000;fill-opacity:1;stroke-width:0.264583"
             d="m 56.853967,-2.1610615 c -0.903907,-0.3568449 -1.185949,-1.5098926 -1.118913,-2.317018 0.188467,-2.2691668 2.2972,-3.3723776 3.532101,-1.677552 1.448069,1.9873854 -0.301788,4.8281102 -2.413188,3.99457 z"
             id="path10396"
             sodipodi:nodetypes="ssss" />
          <path
             style="fill:#000000;fill-opacity:1;stroke-width:0.264583"
             d="m 46.103491,-2.4908645 c -0.98135,-1.084378 -0.977998,-2.944933 0.0073,-4.033636 0.806969,-0.891691 2.277808,-0.593903 2.887209,0.584547 0.910951,1.761585 0.03878,3.949827 -1.574296,3.949827 -0.51459,0 -1.051219,-0.203541 -1.320178,-0.500738 z"
             id="path10394" />
          <path
             style="fill:#292f33;fill-opacity:1;stroke-width:0.264583"
             d="m 44.745634,8.5166595 c -0.537823,-0.44332 -1.321201,-1.280004 -1.740839,-1.859295 -1.302821,-1.798494 -1.468285,-1.768325 9.698308,-1.768325 5.427311,0 10.05617,0.07227 10.286352,0.1606 0.230185,0.08833 0.415534,0.296688 0.41189,0.463021 -0.0108,0.492693 -1.641639,2.48531 -2.623171,3.205075 -0.893768,0.655404 -0.919734,0.658439 -1.455209,0.17005 -1.274238,-1.162195 -3.759813,-1.882079 -6.498328,-1.882079 -2.256074,0 -3.986616,0.441518 -5.645227,1.440281 l -1.455916,0.876707 z"
             id="path1244" />
        </g>
      </g>
      <g
         id="g16828"
         transform="matrix(0.97114006,0,0,0.97114006,12.671471,15.166965)"
         style="opacity:1">
        <path
           style="fill:#000000;stroke-width:0.115845"
           d="m -9.2388913,4.1507616 -0.243202,-0.202729 1.155158,-5.03926 c 0.635337,-2.771594 1.207535,-5.157601 1.27155,-5.302238 0.06402,-0.144638 0.250752,-0.314061 0.41497,-0.376497 0.180021,-0.06844 2.521443,-0.113519 5.89668895,-0.113519 5.16165605,0 5.61707205,0.01581 5.84131205,0.202729 l 0.243203,0.202729 -1.155159,5.039261 c -0.635337,2.771593 -1.207534,5.1576 -1.27155,5.302238 -0.06401,0.144637 -0.250751,0.31406 -0.41497,0.376496 -0.180019,0.06844 -2.52144305,0.113519 -5.896688,0.113519 -5.161656,0 -5.617072,-0.01581 -5.841313,-0.202729 z"
           id="path16521" />
        <path
           style="fill:#ffffff;fill-opacity:1;stroke-width:0.115845"
           d="m 0.94161565,2.6733806 c 0.21192605,-0.255355 0.17614305,-0.76936 -0.06588,-0.946331 -0.150266,-0.109878 -0.656649,-0.153841 -1.771996,-0.153841 -1.29052295,0 -1.59838195,0.03328 -1.77345695,0.191723 -0.237596,0.215021 -0.270727,0.524414 -0.09193,0.858499 0.110293,0.206084 0.257963,0.224074 1.83933595,0.224074 1.38861,0 1.747219,-0.0335 1.863927,-0.174124 z"
           id="path16625" />
        <path
           style="fill:#ffffff;fill-opacity:1;stroke-width:0.115845"
           d="m -2.9553003,1.0969116 c 1.515198,-1.09025501 2.81066595,-2.10466 2.87881595,-2.254233 0.171289,-0.37594 0.03296,-0.562792 -2.02540195,-2.735822 -1.437231,-1.517298 -1.791009,-1.831887 -2.060091,-1.831887 -0.410094,0 -0.688957,0.27345 -0.688957,0.675584 0,0.239603 0.34908,0.684817 1.512447,1.92896 1.389399,1.485871 1.495427,1.630073 1.303257,1.772479 -0.115054,0.08526 -1.187049,0.86122399 -2.382209,1.72436299 -2.304229,1.66410201 -2.482182,1.86642101 -2.123348,2.41407101 0.364461,0.556238 0.639212,0.426466 3.585487,-1.693515 z"
           id="path16623" />
      </g>
    </g>
  </g>
</svg>
